<svg width="25" height="25" viewBox="0 0 25 25" fill="none" xmlns="http://www.w3.org/2000/svg">
<path d="M6.79267 6.21484C6.79267 5.15398 7.2141 4.13656 7.96424 3.38642C8.71439 2.63627 9.7318 2.21484 10.7927 2.21484H14.7927C15.8535 2.21484 16.8709 2.63627 17.6211 3.38642C18.3712 4.13656 18.7927 5.15398 18.7927 6.21484V8.21484H23.9257L22.6127 18.7108C22.4918 19.6784 22.0216 20.5685 21.2905 21.2138C20.5594 21.8591 19.6178 22.2151 18.6427 22.2148H6.94167C5.96672 22.2148 5.02536 21.8587 4.29449 21.2135C3.56361 20.5682 3.09356 19.6783 2.97267 18.7108L1.65967 8.21484H6.79267V6.21484ZM12.7927 8.21484C13.0579 8.21484 13.3122 8.3202 13.4998 8.50774C13.6873 8.69527 13.7927 8.94963 13.7927 9.21484C13.7927 9.48006 13.6873 9.73441 13.4998 9.92195C13.3122 10.1095 13.0579 10.2148 12.7927 10.2148H3.92567L4.95567 18.4628C5.01615 18.9468 5.25139 19.392 5.61714 19.7147C5.98289 20.0373 6.45394 20.2152 6.94167 20.2148H18.6457C19.1331 20.2147 19.6036 20.0366 19.9689 19.714C20.3343 19.3914 20.5692 18.9465 20.6297 18.4628L21.6597 10.2148H16.7927V6.21484C16.7927 5.68441 16.582 5.1757 16.2069 4.80063C15.8318 4.42556 15.3231 4.21484 14.7927 4.21484H10.7927C10.2622 4.21484 9.75353 4.42556 9.37845 4.80063C9.00338 5.1757 8.79267 5.68441 8.79267 6.21484V8.21484H12.7927Z" fill="#001A34"/>
</svg>
