<svg width="25" height="25" viewBox="0 0 25 25" fill="none" xmlns="http://www.w3.org/2000/svg">
<path d="M9.67236 5.21484H21.6724C21.9376 5.21484 22.1919 5.3202 22.3795 5.50774C22.567 5.69527 22.6724 5.94963 22.6724 6.21484C22.6724 6.48006 22.567 6.73441 22.3795 6.92195C22.1919 7.10949 21.9376 7.21484 21.6724 7.21484H9.67236C9.40715 7.21484 9.15279 7.10949 8.96526 6.92195C8.77772 6.73441 8.67236 6.48006 8.67236 6.21484C8.67236 5.94963 8.77772 5.69527 8.96526 5.50774C9.15279 5.3202 9.40715 5.21484 9.67236 5.21484ZM9.67236 11.2148H21.6724C21.9376 11.2148 22.1919 11.3202 22.3795 11.5077C22.567 11.6953 22.6724 11.9496 22.6724 12.2148C22.6724 12.4801 22.567 12.7344 22.3795 12.922C22.1919 13.1095 21.9376 13.2148 21.6724 13.2148H9.67236C9.40715 13.2148 9.15279 13.1095 8.96526 12.922C8.77772 12.7344 8.67236 12.4801 8.67236 12.2148C8.67236 11.9496 8.77772 11.6953 8.96526 11.5077C9.15279 11.3202 9.40715 11.2148 9.67236 11.2148ZM9.67236 17.2148H15.6724C15.9376 17.2148 16.1919 17.3202 16.3795 17.5077C16.567 17.6953 16.6724 17.9496 16.6724 18.2148C16.6724 18.4801 16.567 18.7344 16.3795 18.922C16.1919 19.1095 15.9376 19.2148 15.6724 19.2148H9.67236C9.40715 19.2148 9.15279 19.1095 8.96526 18.922C8.77772 18.7344 8.67236 18.4801 8.67236 18.2148C8.67236 17.9496 8.77772 17.6953 8.96526 17.5077C9.15279 17.3202 9.40715 17.2148 9.67236 17.2148ZM4.17236 7.71484C3.77454 7.71484 3.39301 7.55681 3.1117 7.2755C2.8304 6.9942 2.67236 6.61267 2.67236 6.21484C2.67236 5.81702 2.8304 5.43549 3.1117 5.15418C3.39301 4.87288 3.77454 4.71484 4.17236 4.71484C4.57019 4.71484 4.95172 4.87288 5.23302 5.15418C5.51433 5.43549 5.67236 5.81702 5.67236 6.21484C5.67236 6.61267 5.51433 6.9942 5.23302 7.2755C4.95172 7.55681 4.57019 7.71484 4.17236 7.71484ZM4.17236 13.7148C3.77454 13.7148 3.39301 13.5568 3.1117 13.2755C2.8304 12.9942 2.67236 12.6127 2.67236 12.2148C2.67236 11.817 2.8304 11.4355 3.1117 11.1542C3.39301 10.8729 3.77454 10.7148 4.17236 10.7148C4.57019 10.7148 4.95172 10.8729 5.23302 11.1542C5.51433 11.4355 5.67236 11.817 5.67236 12.2148C5.67236 12.6127 5.51433 12.9942 5.23302 13.2755C4.95172 13.5568 4.57019 13.7148 4.17236 13.7148ZM4.17236 19.7148C3.77454 19.7148 3.39301 19.5568 3.1117 19.2755C2.8304 18.9942 2.67236 18.6127 2.67236 18.2148C2.67236 17.817 2.8304 17.4355 3.1117 17.1542C3.39301 16.8729 3.77454 16.7148 4.17236 16.7148C4.57019 16.7148 4.95172 16.8729 5.23302 17.1542C5.51433 17.4355 5.67236 17.817 5.67236 18.2148C5.67236 18.6127 5.51433 18.9942 5.23302 19.2755C4.95172 19.5568 4.57019 19.7148 4.17236 19.7148Z" fill="white"/>
</svg>
