<svg width="25" height="25" viewBox="0 0 25 25" fill="none" xmlns="http://www.w3.org/2000/svg">
<path d="M10.7885 18.8455C9.20696 18.8457 7.66088 18.3769 6.34579 17.4984C5.0307 16.6198 4.00568 15.371 3.40036 13.9099C2.79504 12.4488 2.6366 10.841 2.9451 9.28982C3.2536 7.73866 4.01516 6.31381 5.13348 5.19549C6.2518 4.07717 7.67665 3.31561 9.22781 3.00711C10.779 2.69862 12.3868 2.85705 13.8479 3.46237C15.309 4.06769 16.5578 5.09271 17.4364 6.4078C18.3149 7.72289 18.7837 9.26898 18.7835 10.8505C18.7835 11.1157 18.6782 11.3701 18.4906 11.5576C18.3031 11.7452 18.0487 11.8505 17.7835 11.8505C17.5183 11.8505 17.2639 11.7452 17.0764 11.5576C16.8889 11.3701 16.7835 11.1157 16.7835 10.8505C16.7834 9.46332 16.3023 8.11906 15.4222 7.04679C14.5422 5.97452 13.3175 5.24059 11.9569 4.97004C10.5964 4.69949 9.18408 4.90906 7.96072 5.56305C6.73735 6.21704 5.77859 7.27499 5.2478 8.55662C4.71701 9.83826 4.64703 11.2643 5.04978 12.5917C5.45253 13.9192 6.3031 15.0659 7.45655 15.8365C8.61001 16.6072 9.99498 16.954 11.3755 16.818C12.756 16.682 14.0467 16.0715 15.0275 15.0905L15.7345 14.3825L22.8495 21.4975C23.0317 21.6861 23.1325 21.9387 23.1302 22.2009C23.1279 22.4631 23.0227 22.7139 22.8373 22.8993C22.6519 23.0847 22.4011 23.1899 22.1389 23.1922C21.8767 23.1945 21.6241 23.0937 21.4355 22.9115L15.6905 17.1665C14.2894 18.2571 12.5641 18.8484 10.7885 18.8465V18.8455Z" fill="white"/>
</svg>
